<svg width="817" height="817" viewBox="0 0 817 817" fill="none" xmlns="http://www.w3.org/2000/svg">
<path d="M286.861 32.9697L287.484 32.9736C313.806 33.3073 335.04 54.7485 335.041 81.1494V195.308C335.04 221.917 313.47 243.487 286.861 243.487H172.703C146.094 243.487 124.523 221.917 124.523 195.308V81.1494C124.523 54.5406 146.094 32.9699 172.703 32.9697H286.861Z" fill="black" stroke="white" stroke-width="31"/>
<path d="M645.896 32.9697L646.519 32.9736C672.841 33.3073 694.075 54.7485 694.075 81.1494V195.308C694.075 221.917 672.505 243.487 645.896 243.487H531.738C505.129 243.487 483.558 221.917 483.558 195.308V81.1494C483.558 54.5406 505.129 32.9699 531.738 32.9697H645.896Z" fill="black" stroke="white" stroke-width="31"/>
<path d="M645.896 304.04L646.519 304.044C672.841 304.378 694.075 325.819 694.075 352.22V466.378C694.075 492.987 672.505 514.558 645.896 514.558H531.738C505.129 514.557 483.558 492.987 483.558 466.378V352.22L483.562 351.598C483.895 325.276 505.336 304.04 531.738 304.04H645.896Z" fill="black" stroke="white" stroke-width="31"/>
<path d="M286.861 304.04L287.484 304.044C313.806 304.378 335.04 325.819 335.041 352.22V466.378C335.04 492.987 313.47 514.558 286.861 514.558H172.703C146.094 514.557 124.523 492.987 124.523 466.378V352.22L124.527 351.598C124.86 325.276 146.301 304.04 172.703 304.04H286.861Z" fill="black" stroke="white" stroke-width="31"/>
<path d="M286.861 573.315L287.484 573.319C313.806 573.653 335.04 595.094 335.041 621.495V735.653C335.04 762.262 313.47 783.833 286.861 783.833H172.703C146.094 783.833 124.523 762.262 124.523 735.653V621.495L124.527 620.873C124.86 594.551 146.301 573.316 172.703 573.315H286.861Z" fill="black" stroke="white" stroke-width="31"/>
<path d="M499.058 120.276H319.54V156.18H499.058V120.276Z" fill="black"/>
<path d="M247.734 319.541V227.987H211.831V319.541H247.734Z" fill="black"/>
<path d="M231.394 120.276C240.419 120.276 247.734 127.592 247.734 136.616V227.987H211.83V136.616C211.83 127.592 219.145 120.276 228.17 120.276H231.394Z" fill="#49D127"/>
<path d="M248.324 364.382V454.141H212.42V364.382H248.324Z" fill="#49D127"/>
<path d="M247.734 588.815V678.574H211.83V588.815H247.734Z" fill="#49D127"/>
<path d="M229.781 156.18H319.54V120.276L229.781 120.276V156.18Z" fill="#49D127"/>
<path d="M229.781 427.25H319.54V391.347H229.781V427.25Z" fill="#49D127"/>
<path d="M499.058 427.25H588.817V391.347H499.058V427.25Z" fill="#49D127"/>
<path d="M499.058 156.18H588.817V120.276L499.058 120.276V156.18Z" fill="#49D127"/>
<path d="M247.734 588.816V499.058H211.831V588.816H247.734Z" fill="black"/>
<path d="M499.058 391.348H319.54V427.251H499.058V391.348Z" fill="black"/>
</svg>
