<svg xmlns="http://www.w3.org/2000/svg" shape-rendering="geometricPrecision" text-rendering="geometricPrecision" image-rendering="optimizeQuality" fill-rule="evenodd" clip-rule="evenodd" viewBox="0 0 512 388.5"><path d="M211.77 98.27V8.82c0-.54.02-1.07.04-1.59-.75-4.14-4.44-7.23-8.66-7.23H8.83C4 0 0 3.98 0 8.82v329.36c0 4.81 4.01 8.83 8.83 8.83h148.64V146.85H32.76v-34.32h124.71v-6.63c0-4.2 3.44-7.63 7.64-7.63h46.66zM512 124.79v222.16H400.81v23.07h34.56v18.48H256.53v-18.48h37.01v-23.07H180.63V124.79H512zM192.98 303.36h306.63V137.12H192.98v166.24zm-63.26-23.27c0 14.52-11.77 26.29-26.29 26.29s-26.28-11.77-26.28-26.29c0-14.51 11.76-26.28 26.28-26.28 14.52 0 26.29 11.77 26.29 26.28zm49.49-234.78v34.3H32.76v-34.3h146.45z"/></svg>